<?xml version="1.0" encoding="UTF-8" standalone="no"?>
<svg
   xmlns:dc="http://purl.org/dc/elements/1.1/"
   xmlns:cc="http://creativecommons.org/ns#"
   xmlns:rdf="http://www.w3.org/1999/02/22-rdf-syntax-ns#"
   xmlns:svg="http://www.w3.org/2000/svg"
   xmlns="http://www.w3.org/2000/svg"
   xmlns:xlink="http://www.w3.org/1999/xlink"
   xmlns:sodipodi="http://sodipodi.sourceforge.net/DTD/sodipodi-0.dtd"
   xmlns:inkscape="http://www.inkscape.org/namespaces/inkscape"
   width="297mm"
   height="210mm"
   viewBox="0 0 297 210"
   version="1.1"
   id="svg8"
   inkscape:version="1.0.1 (0767f8302a, 2020-10-17)"
   sodipodi:docname="logo-white.svg">
  <defs
     id="defs2">
    <linearGradient
       inkscape:collect="always"
       id="linearGradient1043">
      <stop
         style="stop-color:#000000;stop-opacity:1;"
         offset="0"
         id="stop1039" />
      <stop
         style="stop-color:#000000;stop-opacity:0;"
         offset="1"
         id="stop1041" />
    </linearGradient>
    <linearGradient
       inkscape:collect="always"
       xlink:href="#linearGradient1043"
       id="linearGradient1045"
       x1="100.7888"
       y1="115.43233"
       x2="100.7888"
       y2="104.29333"
       gradientUnits="userSpaceOnUse" />
    <pattern
       patternUnits="userSpaceOnUse"
       width="949.93307"
       height="105.21986"
       patternTransform="translate(89.447365,591.34425)"
       id="pattern903">
      <text
         xml:space="preserve"
         style="font-style:normal;font-variant:normal;font-weight:normal;font-stretch:normal;font-size:150.392px;line-height:1.25;font-family:Neuropolitical;-inkscape-font-specification:Neuropolitical;fill:#000000;fill-opacity:1;stroke:none;stroke-width:4.23904"
         x="-8.7227106"
         y="108.5827"
         id="text898"
         transform="scale(1.0533998,0.94930718)"><tspan
           sodipodi:role="line"
           id="tspan896"
           x="-8.7227106"
           y="108.5827"
           style="font-style:italic;font-variant:normal;font-weight:normal;font-stretch:normal;font-size:150.392px;font-family:Neuropolitical;-inkscape-font-specification:'Neuropolitical Italic';fill:#000000;fill-opacity:1;stroke-width:4.23904">Machinat</tspan></text>
    </pattern>
  </defs>
  <sodipodi:namedview
     id="base"
     pagecolor="#000000"
     bordercolor="#666666"
     borderopacity="1.0"
     inkscape:pageopacity="0"
     inkscape:pageshadow="2"
     inkscape:zoom="0.81"
     inkscape:cx="586.31088"
     inkscape:cy="419.15561"
     inkscape:document-units="mm"
     inkscape:current-layer="layer1"
     inkscape:document-rotation="0"
     showgrid="false"
     inkscape:snap-grids="true"
     showguides="true"
     inkscape:window-width="1856"
     inkscape:window-height="1019"
     inkscape:window-x="0"
     inkscape:window-y="24"
     inkscape:window-maximized="1"
     inkscape:guide-bbox="true"
     inkscape:pagecheckerboard="false">
    <sodipodi:guide
       position="150.51254,190.82282"
       orientation="1,0"
       id="guide945" />
  </sodipodi:namedview>
  <metadata
     id="metadata5">
    <rdf:RDF>
      <cc:Work
         rdf:about="">
        <dc:format>image/svg+xml</dc:format>
        <dc:type
           rdf:resource="http://purl.org/dc/dcmitype/StillImage" />
        <dc:title></dc:title>
      </cc:Work>
    </rdf:RDF>
  </metadata>
  <g
     inkscape:label="Layer 1"
     inkscape:groupmode="layer"
     id="layer1">
    <path
       id="path857"
       style="fill:#f2f2f2;fill-opacity:1;stroke:none;stroke-width:5.03978;stroke-miterlimit:4;stroke-dasharray:none;stroke-opacity:1"
       d="m 198.64012,45.952514 a 35.539577,50.813583 84.410698 0 1 4.60618,12.829458 35.539577,50.813583 84.410698 0 1 -33.63615,37.128132 28.175477,54.842179 84.871964 0 0 45.4129,-31.957799 28.175477,54.842179 84.871964 0 0 -16.38293,-17.999791 z" />
    <path
       id="ellipse859"
       style="fill:#f2f2f2;fill-opacity:1;stroke:none;stroke-width:5.03978;stroke-miterlimit:4;stroke-dasharray:none;stroke-opacity:1"
       d="m 143.09718,28.672208 a 28.175477,54.842179 84.871964 0 0 -2.84755,0.207251 28.175477,54.842179 84.871964 0 0 -52.488796,32.807602 28.175477,54.842179 84.871964 0 0 19.110866,19.110242 35.539577,50.813583 84.410698 0 1 -4.86359,-13.20142 35.539577,50.813583 84.410698 0 1 41.08907,-38.923675 z" />
    <path
       id="path855"
       style="fill:#f2f2f2;fill-opacity:1;stroke:none;stroke-width:6.592;stroke-linecap:butt;stroke-linejoin:miter;stroke-opacity:0.02290784;stroke-miterlimit:4;stroke-dasharray:none"
       d="m 162.93629,55.456992 c -4.44082,0.03966 -9.87419,3.065411 -14.15171,7.880848 -1.68211,1.893638 -2.69036,3.042232 -4.09291,5.404466 -1.96533,2.441849 -5.64635,7.934057 -10.49783,15.757438 -10.65918,17.188706 -16.58437,26.305096 -16.58437,26.305096 0,0 17.16982,-11.934371 26.69632,-18.210664 9.1862,-6.052102 13.16296,-9.474689 14.86963,-11.215821 1.60059,-1.170534 3.12644,-2.56513 4.50635,-4.118712 6.43091,-7.239714 8.30933,-16.225136 4.19558,-20.069552 -1.2364,-1.155403 -2.93447,-1.751009 -4.94106,-1.733099 z"
       sodipodi:nodetypes="sscscsccss" />
    <rect
       style="fill:none;stroke:none;stroke-width:0.264583"
       width="251.33644"
       height="27.83942"
       x="24.00337"
       y="147.23235"
       id="rect907" />
    <text
       id="text88"
       y="172.24333"
       x="51.860706"
       style="font-style:normal;font-weight:normal;font-size:10.5833px;line-height:1.25;font-family:sans-serif;fill:#000000;fill-opacity:1;stroke:none;stroke-width:0.264583"
       xml:space="preserve"><tspan
         style="stroke-width:0.264583"
         y="172.24333"
         x="51.860706"
         id="tspan86"
         sodipodi:role="line" /></text>
    <path
       d="m 63.278708,174.50521 3.772444,-16.96056 -17.604737,16.43172 q -1.215566,1.09546 -3.059872,1.09546 -1.844306,0 -2.556878,-1.09546 l -10.26943,-16.43172 -3.772443,16.96056 h -5.784414 l 5.323337,-23.98653 q 0.251497,-1.20877 1.341314,-1.77539 1.131732,-0.56661 2.598794,-0.56661 1.131733,0 1.718557,0.30219 0.628741,0.26442 1.047901,0.90658 l 11.86224,19.30256 20.53886,-19.30256 q 0.670657,-0.64216 1.341313,-0.90658 0.670657,-0.30219 1.760474,-0.30219 1.467061,0 2.305382,0.56661 0.880238,0.56662 0.628741,1.77539 l -5.323337,23.98653 z"
       style="font-style:italic;font-variant:normal;font-weight:normal;font-stretch:normal;font-size:39.7912px;line-height:1.25;font-family:Neuropolitical;-inkscape-font-specification:'Neuropolitical Italic';fill:#f2f2f2;fill-opacity:1;stroke:none;stroke-width:1.12158"
       id="path1922" />
    <path
       d="m 81.738793,174.50521 q -2.473045,0 -3.982024,-0.37774 -1.508977,-0.37774 -2.305382,-1.05768 -0.796404,-0.7177 -0.964068,-1.69983 -0.125749,-1.01989 0.167664,-2.26644 l 0.419161,-1.92647 q 0.293411,-1.28432 0.83832,-2.26645 0.586824,-1.0199 1.634725,-1.69984 1.047901,-0.7177 2.640711,-1.05767 1.592809,-0.37774 3.940108,-0.37774 h 16.808332 l 0.12575,-0.45329 q 0.41916,-1.96425 -0.33533,-2.60641 -0.71257,-0.67993 -2.80838,-0.67993 h -6.203568 l 0.880237,-4.00405 h 6.203571 q 2.72454,0 4.52694,0.45328 1.8443,0.45329 2.85028,1.39765 1.00599,0.90658 1.25749,2.34198 0.25149,1.39765 -0.20958,3.3619 l -1.08982,4.98618 q -0.50299,2.22867 -1.34131,3.73963 -0.79641,1.51096 -2.22155,2.45531 -1.38323,0.94435 -3.47904,1.35987 -2.05388,0.37774 -5.071837,0.37774 z m 18.443057,-9.25464 H 84.044176 q -1.089817,0 -1.844306,0.45328 -0.712573,0.41552 -0.964069,1.62429 l -0.293413,1.39764 q -0.251496,1.09545 0.293413,1.51096 0.586825,0.41552 1.802389,0.41552 h 11.736492 q 1.089817,0 1.928138,-0.1511 0.83832,-0.15109 1.42515,-0.52883 0.58682,-0.41552 1.00598,-1.13323 0.41916,-0.7177 0.67066,-1.85093 z"
       style="font-style:italic;font-variant:normal;font-weight:normal;font-stretch:normal;font-size:39.7912px;line-height:1.25;font-family:Neuropolitical;-inkscape-font-specification:'Neuropolitical Italic';fill:#f2f2f2;fill-opacity:1;stroke:none;stroke-width:1.12158"
       id="path1924" />
    <path
       d="m 119.79398,174.50521 q -3.14371,0 -5.15568,-0.45328 -1.97006,-0.49107 -3.01796,-1.51097 -1.00597,-1.05768 -1.17364,-2.71973 -0.12575,-1.69983 0.41915,-4.15515 l 0.58683,-2.75751 q 0.5449,-2.45532 1.42515,-4.15515 0.92215,-1.69982 2.38921,-2.71973 1.50898,-1.05767 3.68861,-1.51096 2.22156,-0.49106 5.36526,-0.49106 H 140.752 l -1.0479,4.83507 h -16.22152 q -1.46706,0 -2.47304,0.18888 -0.96408,0.18887 -1.63472,0.67993 -0.62875,0.45329 -1.0479,1.28432 -0.37726,0.83103 -0.67066,2.07757 l -0.503,2.41754 q -0.29341,1.20877 -0.2515,2.0398 0.0419,0.79325 0.46108,1.28432 0.41916,0.49107 1.29941,0.71771 0.92214,0.18887 2.3892,0.18887 h 16.26343 l -1.0479,4.75953 z"
       style="font-style:italic;font-variant:normal;font-weight:normal;font-stretch:normal;font-size:39.7912px;line-height:1.25;font-family:Neuropolitical;-inkscape-font-specification:'Neuropolitical Italic';fill:#f2f2f2;fill-opacity:1;stroke:none;stroke-width:1.12158"
       id="path1926" />
    <path
       d="m 164.38675,174.50521 2.51496,-11.40777 q 0.29341,-1.28431 0.2515,-2.11535 -0.0419,-0.83103 -0.503,-1.28431 -0.41916,-0.49107 -1.3413,-0.64216 -0.92216,-0.18888 -2.34731,-0.18888 h -12.44906 l -3.47904,15.63847 h -6.24548 l 5.994,-27.08401 h 6.24549 l -1.46707,6.61047 h 12.61672 q 3.18563,0 5.19759,0.49106 2.01198,0.45329 3.01796,1.51096 1.0479,1.01991 1.17365,2.71973 0.16767,1.69983 -0.37724,4.15515 l -2.55688,11.59664 z"
       style="font-style:italic;font-variant:normal;font-weight:normal;font-stretch:normal;font-size:39.7912px;line-height:1.25;font-family:Neuropolitical;-inkscape-font-specification:'Neuropolitical Italic';fill:#f2f2f2;fill-opacity:1;stroke:none;stroke-width:1.12158"
       id="path1928" />
    <path
       d="m 175.41788,174.50521 4.4431,-19.9447 h 6.37124 l -4.44311,19.9447 z m 6.95806,-21.64454 q -1.17364,0 -1.59281,-0.41551 -0.37725,-0.41552 -0.16766,-1.3221 l 0.46107,-2.19089 q 0.20959,-0.90658 0.75449,-1.28432 0.58683,-0.41552 1.76047,-0.41552 h 2.05389 q 1.21557,0 1.59281,0.41552 0.41916,0.37774 0.20958,1.28432 l -0.46108,2.19089 q -0.20958,0.90658 -0.7964,1.3221 -0.54491,0.41551 -1.76047,0.41551 z"
       style="font-style:italic;font-variant:normal;font-weight:normal;font-stretch:normal;font-size:39.7912px;line-height:1.25;font-family:Neuropolitical;-inkscape-font-specification:'Neuropolitical Italic';fill:#f2f2f2;fill-opacity:1;stroke:none;stroke-width:1.12158"
       id="path1930" />
    <path
       d="m 209.76937,174.50521 2.51496,-11.40777 q 0.29342,-1.28431 0.2515,-2.07757 -0.0419,-0.83103 -0.503,-1.28432 -0.46107,-0.49106 -1.42514,-0.67993 -0.92215,-0.18888 -2.43113,-0.18888 h -6.7904 q -1.46706,0 -2.51496,0.18888 -1.00598,0.18887 -1.71856,0.67993 -0.67065,0.45329 -1.08981,1.28432 -0.41916,0.79326 -0.71257,2.07757 l -2.51496,11.40777 h -6.2455 l 2.55688,-11.59664 q 0.54491,-2.45532 1.42514,-4.15515 0.92216,-1.69982 2.38922,-2.71973 1.50897,-1.05767 3.68861,-1.51096 2.22155,-0.49106 5.36526,-0.49106 h 7.58679 q 3.18563,0 5.15568,0.49106 2.01197,0.45329 3.01796,1.51096 1.0479,1.01991 1.17364,2.71973 0.16767,1.69983 -0.37724,4.15515 l -2.55688,11.59664 z"
       style="font-style:italic;font-variant:normal;font-weight:normal;font-stretch:normal;font-size:39.7912px;line-height:1.25;font-family:Neuropolitical;-inkscape-font-specification:'Neuropolitical Italic';fill:#f2f2f2;fill-opacity:1;stroke:none;stroke-width:1.12158"
       id="path1932" />
    <path
       d="m 228.60867,174.50521 q -2.47305,0 -3.98203,-0.37774 -1.50898,-0.37774 -2.30538,-1.05768 -0.7964,-0.7177 -0.96407,-1.69983 -0.12574,-1.01989 0.16767,-2.26644 l 0.41916,-1.92647 q 0.29341,-1.28432 0.83832,-2.26645 0.58682,-1.0199 1.63472,-1.69984 1.04791,-0.7177 2.64071,-1.05767 1.59281,-0.37774 3.94011,-0.37774 h 16.80834 l 0.12574,-0.45329 q 0.41916,-1.96425 -0.33533,-2.60641 -0.71257,-0.67993 -2.80837,-0.67993 h -6.20358 l 0.88024,-4.00405 h 6.20358 q 2.72453,0 4.52692,0.45328 1.84432,0.45329 2.8503,1.39765 1.00599,0.90658 1.25748,2.34198 0.2515,1.39765 -0.20958,3.3619 l -1.08981,4.98618 q -0.503,2.22867 -1.34132,3.73963 -0.79641,1.51096 -2.22156,2.45531 -1.38322,0.94435 -3.47903,1.35987 -2.05387,0.37774 -5.07183,0.37774 z m 18.44306,-9.25464 h -16.13769 q -1.08981,0 -1.8443,0.45328 -0.71257,0.41552 -0.96407,1.62429 l -0.29341,1.39764 q -0.25149,1.09545 0.29341,1.51096 0.58683,0.41552 1.80239,0.41552 h 11.73649 q 1.08982,0 1.92815,-0.1511 0.83831,-0.15109 1.42514,-0.52883 0.58682,-0.41552 1.00599,-1.13323 0.41916,-0.7177 0.67065,-1.85093 z"
       style="font-style:italic;font-variant:normal;font-weight:normal;font-stretch:normal;font-size:39.7912px;line-height:1.25;font-family:Neuropolitical;-inkscape-font-specification:'Neuropolitical Italic';fill:#f2f2f2;fill-opacity:1;stroke:none;stroke-width:1.12158"
       id="path1934" />
    <path
       d="m 257.27467,174.50521 3.52095,-15.90288 H 257.61 l 1.00597,-4.57066 h 3.18563 l 1.29939,-5.77943 h 6.37124 l -1.29939,5.77943 h 7.16764 l -1.00599,4.57066 h -7.16764 l -3.52095,15.90288 z"
       style="font-style:italic;font-variant:normal;font-weight:normal;font-stretch:normal;font-size:39.7912px;line-height:1.25;font-family:Neuropolitical;-inkscape-font-specification:'Neuropolitical Italic';fill:#f2f2f2;fill-opacity:1;stroke:none;stroke-width:1.12158"
       id="path1936" />
  </g>
</svg>
