<?xml version="1.0" encoding="UTF-8" standalone="no"?>
<svg
   width="1200"
   height="190"
   viewBox="0 0 317.5 50.270833"
   version="1.1"
   id="svg8"
   inkscape:version="1.2 (56b05e47e7, 2022-06-09, custom)"
   sodipodi:docname="nav-logo-dark.svg"
   xmlns:inkscape="http://www.inkscape.org/namespaces/inkscape"
   xmlns:sodipodi="http://sodipodi.sourceforge.net/DTD/sodipodi-0.dtd"
   xmlns:xlink="http://www.w3.org/1999/xlink"
   xmlns="http://www.w3.org/2000/svg"
   xmlns:svg="http://www.w3.org/2000/svg"
   xmlns:rdf="http://www.w3.org/1999/02/22-rdf-syntax-ns#"
   xmlns:cc="http://creativecommons.org/ns#"
   xmlns:dc="http://purl.org/dc/elements/1.1/">
  <defs
     id="defs2">
    <rect
       x="281.06793"
       y="65.963402"
       width="167.39307"
       height="36.612751"
       id="rect3337" />
    <linearGradient
       inkscape:collect="always"
       id="linearGradient1043">
      <stop
         style="stop-color:#000000;stop-opacity:1;"
         offset="0"
         id="stop1039" />
      <stop
         style="stop-color:#000000;stop-opacity:0;"
         offset="1"
         id="stop1041" />
    </linearGradient>
    <linearGradient
       inkscape:collect="always"
       xlink:href="#linearGradient1043"
       id="linearGradient1045"
       x1="100.7888"
       y1="115.43233"
       x2="100.7888"
       y2="104.29333"
       gradientUnits="userSpaceOnUse" />
    <pattern
       patternUnits="userSpaceOnUse"
       width="949.93307"
       height="105.21986"
       patternTransform="translate(89.447365,591.34425)"
       id="pattern903">
      <text
         xml:space="preserve"
         style="font-style:normal;font-variant:normal;font-weight:normal;font-stretch:normal;font-size:150.392px;line-height:1.25;font-family:Neuropolitical;-inkscape-font-specification:Neuropolitical;fill:#000000;fill-opacity:1;stroke:none;stroke-width:4.23904"
         x="-8.7227106"
         y="108.5827"
         id="text898"
         transform="scale(1.0533998,0.94930718)"><tspan
           sodipodi:role="line"
           id="tspan896"
           x="-8.7227106"
           y="108.5827"
           style="font-style:italic;font-variant:normal;font-weight:normal;font-stretch:normal;font-size:150.392px;font-family:Neuropolitical;-inkscape-font-specification:'Neuropolitical Italic';fill:#000000;fill-opacity:1;stroke-width:4.23904">Sociably</tspan></text>
    </pattern>
  </defs>
  <sodipodi:namedview
     id="base"
     pagecolor="#ffffff"
     bordercolor="#666666"
     borderopacity="1.0"
     inkscape:pageopacity="0"
     inkscape:pageshadow="2"
     inkscape:zoom="0.81"
     inkscape:cx="590.74074"
     inkscape:cy="322.83951"
     inkscape:document-units="mm"
     inkscape:current-layer="layer1"
     inkscape:document-rotation="0"
     showgrid="false"
     inkscape:snap-grids="true"
     showguides="true"
     inkscape:window-width="1920"
     inkscape:window-height="1019"
     inkscape:window-x="0"
     inkscape:window-y="24"
     inkscape:window-maximized="1"
     inkscape:guide-bbox="true"
     inkscape:pagecheckerboard="true"
     units="px"
     inkscape:showpageshadow="2"
     inkscape:deskcolor="#d1d1d1" />
  <metadata
     id="metadata5">
    <rdf:RDF>
      <cc:Work
         rdf:about="">
        <dc:format>image/svg+xml</dc:format>
        <dc:type
           rdf:resource="http://purl.org/dc/dcmitype/StillImage" />
      </cc:Work>
    </rdf:RDF>
  </metadata>
  <g
     inkscape:label="Layer 1"
     inkscape:groupmode="layer"
     id="layer1">
    <path
       id="path857"
       style="fill:#ffffff;fill-opacity:1;stroke:none;stroke-width:3.66781;stroke-miterlimit:4;stroke-dasharray:none;stroke-opacity:1"
       d="M 68.097615,9.0354797 A 24.326057,39.320046 85.920533 0 1 71.665001,17.809368 24.326057,39.320046 85.920533 0 1 45.614523,43.200794 19.284567,42.439448 85.800256 0 0 80.785846,21.345295 19.284567,42.439448 85.800256 0 0 68.097615,9.0354797 Z" />
    <path
       id="ellipse859"
       style="fill:#ffffff;fill-opacity:1;stroke:none;stroke-width:3.26991;stroke-miterlimit:4;stroke-dasharray:none;stroke-opacity:1"
       d="M 36.671193,0.63397074 A 18.395433,35.361147 84.758672 0 0 34.835345,0.76929734 18.395433,35.361147 84.758672 0 0 0.99512398,22.191204 18.395433,35.361147 84.758672 0 0 13.316155,34.669354 23.202872,32.76429 84.197727 0 1 10.180532,26.049406 23.202872,32.76429 84.197727 0 1 36.671193,0.63397074 Z" />
    <path
       id="path855"
       style="fill:#ffffff;fill-opacity:1;stroke:none;stroke-width:4.08897;stroke-linecap:butt;stroke-linejoin:miter;stroke-miterlimit:4;stroke-dasharray:none;stroke-opacity:0.0229079"
       d="m 47.159257,15.803435 c -2.737153,0.02479 -6.086087,1.91356 -8.722594,4.919569 -1.036787,1.182088 -1.658244,1.89909 -2.522719,3.373696 -1.211362,1.524308 -3.480196,4.952781 -6.47048,9.836479 -6.569926,10.729923 -10.221987,16.420774 -10.221987,16.420774 0,0 10.582846,-7.449946 16.454626,-11.367883 5.662036,-3.777981 8.113168,-5.914515 9.16509,-7.001403 0.986547,-0.730694 1.927021,-1.601266 2.777551,-2.571079 3.963779,-4.519337 5.121565,-10.128436 2.585998,-12.528278 -0.762065,-0.721258 -1.808695,-1.09306 -3.045485,-1.081875 z"
       sodipodi:nodetypes="sscscsccss" />
    <text
       id="text88"
       y="172.24333"
       x="51.860706"
       style="font-style:normal;font-weight:normal;font-size:10.5833px;line-height:1.25;font-family:sans-serif;fill:#000000;fill-opacity:1;stroke:none;stroke-width:0.264583"
       xml:space="preserve"><tspan
         style="stroke-width:0.264583"
         y="172.24333"
         x="51.860706"
         id="tspan86"
         sodipodi:role="line" /></text>
    <text
       xml:space="preserve"
       id="text3335"
       style="font-size:10.5833px;line-height:1.25;font-family:Purisa;-inkscape-font-specification:Purisa;white-space:pre;shape-inside:url(#rect3337);display:inline" />
    <g
       aria-label="Sociably"
       transform="matrix(1.059388,0,-0.24721432,0.99525535,55.514949,-190.22991)"
       id="text428"
       style="font-weight:bold;font-size:44.8838px;line-height:0.95;font-family:KacstQurn;-inkscape-font-specification:'KacstQurn Bold';letter-spacing:-0.0448839px;word-spacing:1.64949px;stroke-width:1.1221;fill:#ffffff">
      <path
         d="m 111.1954,199.67498 v 6.92543 q -2.69566,-1.20537 -5.25982,-1.81902 -2.56417,-0.61364 -4.84342,-0.61364 -3.024398,0 -4.470849,0.8328 -1.44645,0.83281 -1.44645,2.58608 0,1.31496 0.9643,2.0601 0.986217,0.72322 3.550379,1.2492 l 3.59421,0.72323 q 5.45706,1.0958 7.75824,3.33122 2.30117,2.23542 2.30117,6.35562 0,5.41323 -3.22164,8.06505 -3.19973,2.62991 -9.79642,2.62991 -3.112059,0 -6.246035,-0.59173 -3.133976,-0.59173 -6.267953,-1.75327 v -7.12267 q 3.133977,1.66561 6.048794,2.52033 2.936733,0.8328 5.654307,0.8328 2.761407,0 4.229767,-0.92047 1.46837,-0.92046 1.46837,-2.62991 0,-1.53411 -1.00813,-2.36692 -0.98622,-0.8328 -3.96678,-1.49028 l -3.265474,-0.72322 q -4.909166,-1.05197 -7.188421,-3.35314 -2.25734,-2.30117 -2.25734,-6.2022 0,-4.88725 3.155893,-7.51716 3.155892,-2.62991 9.07319,-2.62991 2.695662,0 5.544732,0.4164 2.84906,0.39449 5.89538,1.20537 z"
         style="font-family:KacstLetter;-inkscape-font-specification:'KacstLetter Bold';fill:#ffffff"
         id="path2663" />
      <path
         d="m 132.03639,211.83832 q -2.608,0 -3.9887,1.88477 -1.35879,1.86285 -1.35879,5.39131 0,3.52847 1.35879,5.41324 1.3807,1.86285 3.9887,1.86285 2.56416,0 3.92294,-1.86285 1.35879,-1.88477 1.35879,-5.41324 0,-3.52846 -1.35879,-5.39131 -1.35878,-1.88477 -3.92294,-1.88477 z m 0,-5.61048 q 6.3337,0 9.88407,3.41889 3.5723,3.41888 3.5723,9.46767 0,6.0488 -3.5723,9.46768 -3.55037,3.41888 -9.88407,3.41888 -6.35562,0 -9.94983,-3.41888 -3.5723,-3.41888 -3.5723,-9.46768 0,-6.04879 3.5723,-9.46767 3.59421,-3.41889 9.94983,-3.41889 z"
         style="font-family:KacstLetter;-inkscape-font-specification:'KacstLetter Bold';fill:#ffffff"
         id="path2665" />
      <path
         d="m 170.97992,207.58663 v 6.39945 q -1.59986,-1.0958 -3.22164,-1.62178 -1.59986,-0.52598 -3.33122,-0.52598 -3.28739,0 -5.12832,1.9286 -1.81903,1.90668 -1.81903,5.34748 0,3.4408 1.81903,5.3694 1.84093,1.90669 5.12832,1.90669 1.84094,0 3.48463,-0.5479 1.66561,-0.5479 3.06823,-1.62178 v 6.42137 q -1.84094,0.67939 -3.74762,1.00813 -1.88477,0.35065 -3.79146,0.35065 -6.64052,0 -10.38814,-3.39696 -3.74762,-3.41889 -3.74762,-9.4896 0,-6.07071 3.74762,-9.46767 3.74762,-3.41889 10.38814,-3.41889 1.92861,0 3.79146,0.35066 1.88477,0.32874 3.74762,1.00813 z"
         style="font-family:KacstLetter;-inkscape-font-specification:'KacstLetter Bold';fill:#ffffff"
         id="path2667" />
      <path
         d="m 177.70705,206.81957 h 7.8459 v 24.54583 h -7.8459 z m 0,-9.55534 h 7.8459 v 6.39945 h -7.8459 z"
         style="font-family:KacstLetter;-inkscape-font-specification:'KacstLetter Bold';fill:#ffffff"
         id="path2669" />
      <path
         d="m 204.04894,220.31978 q -2.45458,0 -3.70379,0.8328 -1.22729,0.83281 -1.22729,2.45459 0,1.49028 0.98621,2.345 1.00814,0.83281 2.78333,0.83281 2.2135,0 3.7257,-1.57795 1.5122,-1.59986 1.5122,-3.9887 v -0.89855 z m 11.98801,-2.95865 v 14.00427 h -7.91165 v -3.63804 q -1.57795,2.23542 -3.55038,3.26547 -1.97243,1.00813 -4.79958,1.00813 -3.81337,0 -6.20221,-2.2135 -2.36692,-2.23543 -2.36692,-5.78581 0,-4.31743 2.95865,-6.3337 2.98057,-2.01626 9.33618,-2.01626 h 4.62426 v -0.61365 q 0,-1.86285 -1.46837,-2.71757 -1.46836,-0.87664 -4.58042,-0.87664 -2.52033,0 -4.69001,0.50407 -2.16968,0.50406 -4.03253,1.5122 v -5.98305 q 2.52033,-0.61364 5.06258,-0.92047 2.54225,-0.32874 5.08449,-0.32874 6.64052,0 9.57726,2.62991 2.95865,2.608 2.95865,8.50338 z"
         style="font-family:KacstLetter;-inkscape-font-specification:'KacstLetter Bold';fill:#ffffff"
         id="path2671" />
      <path
         d="m 236.35195,226.30283 q 2.52033,0 3.83528,-1.84094 1.33687,-1.84094 1.33687,-5.34749 0,-3.50654 -1.33687,-5.34748 -1.31495,-1.84094 -3.83528,-1.84094 -2.52033,0 -3.87912,1.86286 -1.33687,1.84093 -1.33687,5.32556 0,3.48463 1.33687,5.34749 1.35879,1.84094 3.87912,1.84094 z m -5.21599,-15.88905 q 1.62178,-2.14776 3.59421,-3.15589 1.97243,-1.03005 4.5366,-1.03005 4.53659,0 7.45141,3.61613 2.91481,3.59421 2.91481,9.27043 0,5.67623 -2.91481,9.29235 -2.91482,3.59421 -7.45141,3.59421 -2.56417,0 -4.5366,-1.00813 -1.97243,-1.03005 -3.59421,-3.17781 v 3.55038 h -7.8459 v -34.10117 h 7.8459 z"
         style="font-family:KacstLetter;-inkscape-font-specification:'KacstLetter Bold';fill:#ffffff"
         id="path2673" />
      <path
         d="m 255.37391,197.26423 h 7.8459 v 34.10117 h -7.8459 z"
         style="font-family:KacstLetter;-inkscape-font-specification:'KacstLetter Bold';fill:#ffffff"
         id="path2675" />
      <path
         d="m 267.49236,206.81957 h 7.84589 l 6.5967,16.6561 5.61047,-16.6561 h 7.8459 l -10.3224,26.86892 q -1.55603,4.09828 -3.63804,5.72005 -2.0601,1.6437 -5.45706,1.6437 h -4.5366 V 235.902 h 2.45458 q 1.99435,0 2.89291,-0.63556 0.92046,-0.63557 1.42453,-2.27926 l 0.21916,-0.67939 z"
         style="font-family:KacstLetter;-inkscape-font-specification:'KacstLetter Bold';fill:#ffffff"
         id="path2677" />
    </g>
  </g>
</svg>
